<?xml version="1.0" encoding="UTF-8" standalone="no"?>
<!DOCTYPE svg PUBLIC "-//W3C//DTD SVG 1.1//EN" "http://www.w3.org/Graphics/SVG/1.1/DTD/svg11.dtd">
<svg xmlns="http://www.w3.org/2000/svg" version="1.1" viewBox="0.00 0.00 627.00 398.00">
<g stroke-width="2.00" fill="none" stroke-linecap="butt">
<path stroke="#5f2829" vector-effect="non-scaling-stroke" d="
  M 293.55 35.63
  Q 292.61 35.30 291.69 35.08
  Q 290.66 34.83 289.89 34.40
  Q 244.83 9.18 193.75 20.94"
/>
<path stroke="#551d1e" vector-effect="non-scaling-stroke" d="
  M 193.75 20.94
  Q 160.34 29.17 134.70 51.95
  Q 100.99 81.89 92.17 126.30
  Q 90.01 137.16 89.74 145.50
  Q 89.35 157.42 90.24 173.72"
/>
<path stroke="#5f0000" vector-effect="non-scaling-stroke" d="
  M 219.20 281.61
  L 219.20 288.22
  Q 219.20 288.73 219.71 288.78
  L 222.74 289.09
  Q 223.30 289.15 223.38 289.70
  Q 223.98 293.87 223.94 295.76
  Q 223.56 312.49 223.63 329.33
  C 223.64 331.28 224.12 333.24 223.81 335.16
  Q 223.48 337.24 223.72 339.39
  C 224.23 344.07 223.93 349.25 223.63 353.98
  A 0.24 0.24 0.0 0 1 223.26 354.17
  Q 223.06 354.03 222.85 354.15
  Q 222.41 354.41 222.65 354.87
  Q 223.12 355.77 224.04 355.64
  Q 224.72 355.55 224.37 356.14
  L 223.40 357.80
  Q 223.16 358.20 223.28 358.66
  L 223.68 360.18
  A 0.73 0.73 0.0 0 1 223.38 360.97
  L 222.53 361.54
  Q 221.84 362.00 222.51 362.49
  Q 222.97 362.83 222.94 363.52"
/>
<path stroke="#454446" vector-effect="non-scaling-stroke" d="
  M 193.57 84.23
  Q 193.73 83.68 193.15 83.63
  Q 192.89 83.61 193.13 83.51
  Q 193.31 83.44 193.25 83.25
  Q 191.99 79.08 191.33 74.59
  Q 191.02 72.46 191.19 70.38
  C 191.47 67.17 191.50 64.04 190.91 60.87
  Q 190.23 57.23 190.20 55.55
  Q 190.05 47.83 190.15 40.25
  Q 190.18 37.63 190.65 35.52
  C 190.93 34.26 191.87 33.32 191.85 32.05
  C 191.83 30.59 192.18 29.30 192.39 27.88
  C 192.61 26.31 193.51 25.01 192.95 23.40
  Q 192.76 22.85 193.22 22.48
  Q 193.98 21.89 193.75 20.94"
/>
</g>
<path fill="#6f0000" d="
  M 293.55 35.63
  Q 292.61 35.30 291.69 35.08
  Q 290.66 34.83 289.89 34.40
  Q 244.83 9.18 193.75 20.94
  Q 160.34 29.17 134.70 51.95
  Q 100.99 81.89 92.17 126.30
  Q 90.01 137.16 89.74 145.50
  Q 89.35 157.42 90.24 173.72
  Q 86.57 209.08 104.91 238.34
  C 128.98 276.75 175.02 294.16 219.20 281.61
  L 219.20 288.22
  Q 219.20 288.73 219.71 288.78
  L 222.74 289.09
  Q 223.30 289.15 223.38 289.70
  Q 223.98 293.87 223.94 295.76
  Q 223.56 312.49 223.63 329.33
  C 223.64 331.28 224.12 333.24 223.81 335.16
  Q 223.48 337.24 223.72 339.39
  C 224.23 344.07 223.93 349.25 223.63 353.98
  A 0.24 0.24 0.0 0 1 223.26 354.17
  Q 223.06 354.03 222.85 354.15
  Q 222.41 354.41 222.65 354.87
  Q 223.12 355.77 224.04 355.64
  Q 224.72 355.55 224.37 356.14
  L 223.40 357.80
  Q 223.16 358.20 223.28 358.66
  L 223.68 360.18
  A 0.73 0.73 0.0 0 1 223.38 360.97
  L 222.53 361.54
  Q 221.84 362.00 222.51 362.49
  Q 222.97 362.83 222.94 363.52
  C 166.06 373.40 110.14 357.11 67.85 318.74
  Q 38.03 291.69 22.38 253.72
  C -8.28 179.38 14.13 94.33 76.54 43.68
  C 112.24 14.71 157.32 1.11 202.75 3.98
  Q 252.05 7.10 293.55 35.63
  Z"
/>
<path fill="#4f4f51" d="
  M 293.55 35.63
  Q 320.49 54.12 340.37 79.85
  Q 356.58 100.83 369.38 123.94
  Q 369.72 124.56 369.01 124.56
  L 271.74 124.56
  Q 271.24 124.56 270.93 124.17
  Q 241.45 86.92 193.57 84.23
  Q 193.73 83.68 193.15 83.63
  Q 192.89 83.61 193.13 83.51
  Q 193.31 83.44 193.25 83.25
  Q 191.99 79.08 191.33 74.59
  Q 191.02 72.46 191.19 70.38
  C 191.47 67.17 191.50 64.04 190.91 60.87
  Q 190.23 57.23 190.20 55.55
  Q 190.05 47.83 190.15 40.25
  Q 190.18 37.63 190.65 35.52
  C 190.93 34.26 191.87 33.32 191.85 32.05
  C 191.83 30.59 192.18 29.30 192.39 27.88
  C 192.61 26.31 193.51 25.01 192.95 23.40
  Q 192.76 22.85 193.22 22.48
  Q 193.98 21.89 193.75 20.94
  Q 244.83 9.18 289.89 34.40
  Q 290.66 34.83 291.69 35.08
  Q 292.61 35.30 293.55 35.63
  Z"
/>
<path fill="#3a393b" d="
  M 193.75 20.94
  Q 193.98 21.89 193.22 22.48
  Q 192.76 22.85 192.95 23.40
  C 193.51 25.01 192.61 26.31 192.39 27.88
  C 192.18 29.30 191.83 30.59 191.85 32.05
  C 191.87 33.32 190.93 34.26 190.65 35.52
  Q 190.18 37.63 190.15 40.25
  Q 190.05 47.83 190.20 55.55
  Q 190.23 57.23 190.91 60.87
  C 191.50 64.04 191.47 67.17 191.19 70.38
  Q 191.02 72.46 191.33 74.59
  Q 191.99 79.08 193.25 83.25
  Q 193.31 83.44 193.13 83.51
  Q 192.89 83.61 193.15 83.63
  Q 193.73 83.68 193.57 84.23
  Q 155.88 83.77 127.85 106.09
  Q 95.76 131.62 90.24 173.72
  Q 89.35 157.42 89.74 145.50
  Q 90.01 137.16 92.17 126.30
  Q 100.99 81.89 134.70 51.95
  Q 160.34 29.17 193.75 20.94
  Z"
/>
<path fill="#802427" d="
  M 329.03 194.69
  L 308.56 160.37
  A 0.31 0.31 0.0 0 0 308.03 160.37
  L 265.56 232.09
  Q 265.27 232.58 264.70 232.58
  L 247.02 232.59
  A 0.41 0.41 0.0 0 1 246.67 231.97
  Q 273.88 186.76 300.99 141.68
  C 302.66 138.91 305.05 136.73 308.42 136.57
  Q 313.55 136.33 316.41 141.07
  Q 343.73 186.37 371.32 232.12
  A 0.30 0.30 0.0 0 1 371.06 232.58
  L 352.14 232.59
  Q 351.58 232.59 351.29 232.10
  L 337.62 209.17
  Q 337.37 208.75 336.88 208.75
  L 293.17 208.76
  A 0.41 0.41 0.0 0 1 292.82 208.15
  L 299.99 195.92
  A 1.35 1.34 15.7 0 1 301.19 195.25
  Q 314.63 195.53 328.75 195.20
  Q 329.32 195.18 329.03 194.69
  Z"
/>
<path fill="#802427" d="
  M 397.20 164.18
  L 397.22 231.93
  Q 397.22 232.57 396.57 232.57
  L 382.00 232.58
  Q 381.37 232.58 381.37 231.95
  Q 381.44 191.35 381.38 146.14
  C 381.37 137.57 390.13 133.40 396.28 139.49
  Q 429.19 172.08 463.20 205.77
  A 0.32 0.32 0.0 0 0 463.75 205.54
  L 463.74 137.54
  Q 463.74 137.07 464.21 137.07
  L 479.05 137.04
  Q 479.62 137.03 479.62 137.60
  Q 479.64 180.98 479.61 224.62
  C 479.61 233.56 470.31 236.76 464.24 230.67
  Q 432.25 198.59 397.80 163.93
  Q 397.20 163.33 397.20 164.18
  Z"
/>
<path fill="#802427" d="
  M 146.29 205.86
  C 139.57 191.22 140.11 171.63 149.21 157.60
  C 157.84 144.31 172.54 137.82 188.37 137.81
  Q 213.49 137.80 238.60 137.81
  Q 239.27 137.81 239.27 138.49
  L 239.28 153.96
  A 0.44 0.44 0.0 0 1 238.84 154.40
  Q 215.06 154.51 190.12 154.41
  Q 183.04 154.38 178.50 155.86
  C 151.39 164.72 151.71 205.88 178.70 214.67
  Q 183.40 216.20 194.18 216.10
  Q 217.51 215.88 238.64 216.06
  Q 239.28 216.06 239.28 216.70
  L 239.28 232.01
  Q 239.28 232.60 238.69 232.60
  Q 214.52 232.53 190.45 232.63
  Q 181.63 232.67 176.11 231.14
  Q 155.26 225.37 146.29 205.86
  Z"
/>
<rect fill="#4f4f51" x="496.57" y="137.82" width="16.64" height="94.76" rx="0.47"/>
<path fill="#4f4f51" d="
  M 560.37 154.46
  L 525.26 154.46
  A 0.45 0.45 0.0 0 1 524.81 154.01
  L 524.82 138.24
  A 0.45 0.45 0.0 0 1 525.27 137.79
  L 613.04 137.80
  A 0.45 0.45 0.0 0 1 613.49 138.25
  L 613.50 154.01
  A 0.45 0.45 0.0 0 1 613.05 154.46
  L 577.96 154.44
  A 0.45 0.45 0.0 0 0 577.51 154.89
  L 577.51 232.15
  A 0.45 0.45 0.0 0 1 577.06 232.60
  L 561.26 232.57
  A 0.45 0.45 0.0 0 1 560.81 232.12
  L 560.82 154.91
  A 0.45 0.45 0.0 0 0 560.37 154.46
  Z"
/>
<path fill="#4e0000" d="
  M 222.94 363.52
  Q 222.97 362.83 222.51 362.49
  Q 221.84 362.00 222.53 361.54
  L 223.38 360.97
  A 0.73 0.73 0.0 0 0 223.68 360.18
  L 223.28 358.66
  Q 223.16 358.20 223.40 357.80
  L 224.37 356.14
  Q 224.72 355.55 224.04 355.64
  Q 223.12 355.77 222.65 354.87
  Q 222.41 354.41 222.85 354.15
  Q 223.06 354.03 223.26 354.17
  A 0.24 0.24 0.0 0 0 223.63 353.98
  C 223.93 349.25 224.23 344.07 223.72 339.39
  Q 223.48 337.24 223.81 335.16
  C 224.12 333.24 223.64 331.28 223.63 329.33
  Q 223.56 312.49 223.94 295.76
  Q 223.98 293.87 223.38 289.70
  Q 223.30 289.15 222.74 289.09
  L 219.71 288.78
  Q 219.20 288.73 219.20 288.22
  L 219.20 281.61
  Q 246.62 273.26 265.56 252.30
  A 1.38 1.36 -68.9 0 1 266.58 251.84
  L 362.53 251.82
  A 0.31 0.31 0.0 0 1 362.84 252.14
  Q 362.83 252.48 362.65 252.77
  Q 343.09 284.48 318.77 310.97
  Q 310.81 319.64 301.32 327.99
  Q 294.12 334.33 285.20 339.79
  Q 256.49 357.35 222.94 363.52
  Z"
/>
</svg>
