<?xml version="1.0" encoding="UTF-8" standalone="no"?>
<!DOCTYPE svg PUBLIC "-//W3C//DTD SVG 1.1//EN" "http://www.w3.org/Graphics/SVG/1.1/DTD/svg11.dtd">
<svg xmlns="http://www.w3.org/2000/svg" version="1.1" viewBox="0.00 0.00 512.00 512.00">
<path fill="#000000" d="
  M 204.23 180.59
  Q 176.02 214.94 147.50 249.51
  C 140.87 257.54 135.52 265.87 129.58 274.25
  C 125.33 280.24 116.95 289.79 109.56 286.04
  Q 104.91 283.69 105.33 277.92
  Q 105.79 271.63 107.66 265.89
  Q 116.66 238.18 125.35 213.36
  Q 142.81 163.49 165.76 115.51
  Q 166.30 114.38 165.40 115.25
  Q 133.66 145.83 100.64 177.53
  C 94.21 183.70 88.25 190.19 82.03 196.54
  C 78.02 200.62 73.65 204.53 68.49 206.03
  C 60.98 208.21 56.96 201.52 57.75 195.01
  Q 58.59 188.15 60.53 181.06
  Q 73.27 134.43 93.92 90.82
  Q 97.07 84.17 100.63 78.45
  Q 102.43 75.55 104.93 73.98
  C 113.01 68.88 120.87 78.93 114.17 84.84
  Q 112.82 86.03 112.00 87.67
  C 107.52 96.64 102.82 105.26 98.91 114.48
  Q 84.72 147.91 75.39 181.17
  Q 75.06 182.34 75.93 181.50
  Q 105.32 152.84 147.96 112.09
  C 160.70 99.92 172.77 87.20 185.55 75.17
  Q 187.92 72.93 190.57 71.16
  C 194.60 68.45 198.64 72.13 200.88 75.29
  Q 202.13 77.05 201.72 79.26
  C 200.55 85.56 197.64 91.84 194.15 97.43
  Q 188.48 106.52 182.22 115.82
  C 180.61 118.22 179.14 120.88 177.91 123.46
  Q 149.09 184.31 128.37 249.58
  Q 127.81 251.35 128.86 249.82
  Q 129.95 248.23 131.13 246.78
  Q 164.75 205.83 198.34 164.95
  C 209.72 151.10 221.57 137.55 233.10 123.87
  Q 241.00 114.49 251.21 99.99
  C 256.76 92.11 263.20 84.10 270.74 77.96
  Q 274.01 75.29 276.57 77.93
  C 280.59 82.07 265.12 105.01 262.18 109.20
  Q 246.30 131.91 234.29 154.22
  C 218.66 183.22 205.52 212.53 191.53 243.54
  Q 190.78 245.20 191.86 243.74
  Q 216.28 210.50 239.92 177.46
  Q 241.50 175.25 243.16 172.81
  Q 244.56 170.75 246.12 168.00
  Q 253.89 154.32 259.36 146.83
  Q 263.17 141.62 266.82 138.76
  C 273.90 133.19 282.14 141.11 277.45 148.92
  C 276.32 150.80 275.25 152.81 274.37 154.82
  C 253.46 202.11 231.70 249.45 214.51 297.94
  Q 213.93 299.57 215.08 298.27
  Q 247.63 261.63 280.61 224.46
  Q 284.30 220.30 287.72 215.79
  C 291.77 210.46 296.29 205.26 299.55 199.49
  C 301.78 195.56 304.04 190.46 308.63 189.07
  Q 313.30 187.66 315.64 191.78
  C 318.55 196.93 316.99 199.77 314.82 205.79
  Q 307.57 225.88 298.95 243.97
  Q 292.50 257.46 289.88 270.34
  C 288.35 277.82 289.40 284.17 292.35 291.40
  C 301.20 313.10 316.13 331.24 333.69 346.90
  Q 352.15 363.36 375.20 379.10
  Q 396.30 393.50 418.00 408.24
  Q 418.95 408.88 418.34 407.92
  C 407.44 390.69 399.12 370.57 392.14 352.15
  C 388.55 342.69 401.86 337.46 405.73 347.52
  C 412.70 365.62 419.51 382.70 429.42 398.60
  Q 434.00 405.95 438.53 413.45
  C 440.52 416.76 441.42 423.03 437.84 425.70
  Q 435.65 427.34 432.63 428.39
  Q 425.76 430.79 418.49 432.48
  Q 401.44 436.46 382.72 439.27
  C 376.32 440.23 370.06 441.70 363.72 443.09
  Q 361.88 443.49 359.99 444.21
  C 352.93 446.90 347.18 437.59 353.21 432.24
  Q 355.72 430.02 359.49 429.25
  Q 382.34 424.60 405.69 418.26
  Q 406.31 418.09 405.78 417.73
  Q 385.55 404.02 365.28 390.09
  Q 336.73 370.46 316.12 350.52
  C 299.09 334.06 284.45 313.97 276.80 291.75
  C 271.69 276.93 276.11 259.28 282.40 245.55
  Q 283.34 243.50 281.84 245.19
  Q 255.07 275.26 228.25 305.52
  C 221.26 313.40 215.00 321.72 207.83 329.84
  C 203.91 334.28 195.24 342.30 189.78 334.79
  C 187.92 332.24 187.92 329.64 188.91 326.81
  Q 197.01 303.63 204.57 282.47
  C 212.42 260.47 222.44 236.66 232.59 213.46
  Q 233.58 211.18 232.13 213.20
  Q 202.45 254.15 172.04 295.52
  Q 166.54 303.00 160.96 311.70
  Q 158.47 315.60 153.40 314.30
  C 137.23 310.17 159.97 272.33 164.16 265.02
  C 167.60 259.01 171.09 253.20 173.89 247.06
  Q 189.06 213.80 204.49 180.75
  Q 205.00 179.66 204.23 180.59
  Z"
/>
</svg>
