<?xml version="1.0" standalone="no"?>
<!DOCTYPE svg PUBLIC "-//W3C//DTD SVG 20010904//EN"
 "http://www.w3.org/TR/2001/REC-SVG-20010904/DTD/svg10.dtd">
<svg version="1.0" xmlns="http://www.w3.org/2000/svg"
 width="500.000000pt" height="500.000000pt" viewBox="0 0 500.000000 500.000000"
 preserveAspectRatio="xMidYMid meet">
<metadata>
Created by potrace 1.16, written by Peter Selinger 2001-2019
</metadata>
<g transform="translate(0.000000,500.000000) scale(0.100000,-0.100000)"
fill="#72727" stroke="none">
<path d="M2585 4867 c-16 -12 -31 -25 -33 -29 -2 -5 -7 -8 -12 -8 -4 0 -75
-66 -158 -147 -187 -185 -299 -292 -431 -413 -57 -52 -136 -126 -176 -165 -97
-93 -122 -114 -128 -109 -3 3 -13 -7 -24 -22 -10 -15 -123 -133 -251 -263
-129 -130 -268 -274 -310 -321 -43 -46 -84 -91 -92 -100 -8 -8 -41 -47 -74
-85 -32 -39 -91 -104 -130 -145 -91 -95 -106 -117 -106 -155 0 -51 24 -75 76
-75 24 0 44 5 44 10 0 6 5 10 11 10 6 0 39 30 73 67 33 37 122 126 196 198 74
71 191 186 261 255 69 69 193 190 275 269 170 164 146 164 179 6 9 -44 22
-109 30 -145 8 -36 23 -108 34 -160 11 -52 27 -127 35 -166 l15 -72 -112 -115
c-165 -171 -257 -269 -257 -276 0 -3 -16 -21 -35 -38 -19 -18 -35 -37 -35 -43
0 -5 -3 -10 -7 -10 -5 0 -35 -34 -68 -76 -33 -42 -72 -90 -87 -107 -16 -18
-28 -35 -28 -39 0 -3 -6 -13 -13 -20 -26 -27 -167 -246 -198 -308 -18 -36 -36
-67 -40 -70 -3 -3 -27 -57 -52 -120 -55 -140 -82 -282 -73 -381 6 -64 30 -147
46 -159 4 -3 10 -15 14 -27 4 -13 12 -23 17 -23 5 0 9 -6 9 -13 0 -16 83 -107
98 -107 6 0 12 -4 14 -9 5 -15 120 -81 140 -81 10 0 18 -4 18 -8 0 -14 170
-61 295 -82 76 -13 191 -23 315 -26 170 -5 209 -3 305 15 60 11 111 25 113 31
2 5 15 10 28 10 13 0 24 4 24 8 0 4 14 16 30 26 59 34 108 102 143 195 18 48
21 77 20 206 0 83 -6 170 -11 195 -6 25 -18 79 -27 120 -9 41 -20 84 -25 95
-5 11 -16 52 -24 90 -31 147 -37 170 -46 186 -4 9 -11 37 -15 63 -4 25 -11 48
-15 51 -5 3 -11 28 -15 55 -4 27 -11 52 -15 55 -4 3 -11 28 -15 55 -4 27 -11
52 -16 56 -5 3 -9 16 -9 29 0 13 -4 26 -9 29 -5 4 -12 25 -16 48 -4 23 -11 49
-16 58 -4 8 -15 40 -24 70 -9 30 -20 64 -25 75 -15 35 -50 158 -50 175 0 10
27 41 61 71 34 30 71 63 83 74 20 18 75 65 151 130 17 14 34 25 38 25 9 0 -23
-61 -38 -72 -5 -4 -6 -8 -1 -8 5 0 1 -9 -9 -20 -10 -11 -15 -20 -10 -20 4 0 1
-8 -6 -17 -27 -35 21 9 95 86 39 40 84 86 99 102 19 18 27 34 23 46 -4 13 5
25 30 43 19 14 41 30 47 35 15 13 40 30 157 109 157 106 200 158 200 241 -1
38 -39 104 -71 124 -104 64 -186 27 -413 -184 -11 -11 -39 -33 -61 -50 -55
-41 -80 -62 -184 -153 -36 -31 -113 -103 -170 -159 -58 -57 -108 -103 -111
-103 -6 0 -79 278 -104 395 -25 117 -46 234 -46 253 0 17 53 71 210 212 46 41
91 82 99 90 9 9 36 32 61 52 25 20 61 52 82 70 20 18 60 53 89 78 29 25 60 53
68 63 9 9 19 17 23 17 4 0 17 10 30 23 13 12 38 33 57 47 19 14 45 35 58 48
13 12 27 22 30 22 21 0 93 107 93 139 0 31 -41 98 -67 110 -41 19 -114 13
-148 -12z m-611 -2197 c24 -114 33 -150 76 -305 12 -44 26 -93 30 -110 4 -16
18 -66 30 -110 12 -44 26 -93 30 -110 8 -31 41 -153 66 -240 26 -93 42 -190
50 -296 5 -86 3 -116 -10 -156 -20 -61 -61 -102 -112 -114 -51 -11 -248 -11
-332 0 -37 6 -110 15 -162 21 -52 6 -120 18 -150 27 -103 28 -160 47 -160 53
0 3 -16 12 -36 19 -20 7 -46 21 -58 31 -11 11 -30 27 -42 37 -27 23 -49 68
-58 114 -7 38 19 196 35 214 5 5 9 16 9 26 0 9 16 47 36 85 20 38 48 91 61
117 49 96 231 346 363 500 90 105 305 328 307 319 2 -4 14 -59 27 -122z"/>
<path d="M3173 3321 c-48 -8 -133 -49 -140 -68 -3 -7 -10 -13 -17 -13 -13 -1
-100 -114 -133 -175 -35 -63 -83 -162 -83 -173 0 -5 -11 -34 -24 -63 -33 -75
-65 -240 -72 -373 -5 -92 -3 -132 16 -231 13 -66 32 -138 43 -160 10 -22 29
-60 41 -85 24 -50 136 -167 181 -190 17 -8 38 -22 48 -31 21 -19 123 -53 217
-72 45 -9 94 -10 160 -5 141 11 189 21 265 53 17 7 63 27 103 44 41 17 114 58
163 91 50 33 93 60 96 60 5 0 11 5 148 116 88 72 135 115 182 166 7 7 26 26
43 43 59 59 62 192 5 257 -12 15 -46 39 -75 54 -43 22 -59 26 -101 21 -27 -3
-56 -13 -65 -22 -8 -8 -19 -15 -24 -15 -11 0 -70 -62 -70 -74 0 -26 -196 -229
-232 -241 -10 -4 -18 -10 -18 -14 0 -11 -169 -123 -225 -149 -88 -41 -117 -53
-164 -66 -30 -9 -87 -16 -126 -16 -71 0 -165 23 -165 41 0 5 -7 9 -15 9 -25 0
-108 90 -137 150 -54 109 -74 334 -43 470 51 217 199 463 291 486 36 9 84 57
84 83 0 37 -19 70 -49 86 -32 16 -42 16 -108 6z"/>
<path d="M4630 2863 c-66 -13 -110 -73 -110 -149 0 -88 63 -148 155 -148 151
0 208 195 81 277 -27 18 -88 28 -126 20z"/>
</g>
</svg>
