<?xml version="1.0" encoding="UTF-8" standalone="no"?>
<!DOCTYPE svg PUBLIC "-//W3C//DTD SVG 1.1//EN" "http://www.w3.org/Graphics/SVG/1.1/DTD/svg11.dtd">
<svg xmlns="http://www.w3.org/2000/svg" version="1.1" viewBox="0.00 0.00 512.00 512.00">
<path fill="#000000" d="
  M 135.53 0.00
  L 148.61 0.00
  Q 173.56 1.10 190.81 2.90
  Q 213.03 5.22 247.42 10.06
  Q 274.68 13.89 302.25 16.20
  Q 312.34 17.04 321.08 17.39
  Q 334.52 17.92 340.26 17.69
  Q 365.56 16.65 388.56 16.66
  C 397.47 16.66 406.39 17.37 415.22 18.28
  Q 433.72 20.21 449.63 27.66
  Q 467.57 36.07 477.86 52.53
  C 489.54 71.22 496.41 93.58 500.52 115.38
  Q 503.48 131.02 504.52 139.53
  Q 508.03 168.16 508.71 189.50
  Q 509.39 211.25 509.90 233.00
  Q 510.55 260.80 506.62 287.50
  C 503.50 308.67 495.83 330.75 479.97 345.13
  Q 469.47 354.66 454.70 358.44
  Q 434.10 363.70 410.37 364.74
  Q 386.54 365.77 364.05 364.00
  Q 330.85 361.37 299.25 358.99
  Q 288.30 358.16 277.20 357.69
  Q 276.67 357.67 276.33 358.09
  Q 268.50 367.99 260.19 377.67
  Q 245.88 394.34 222.11 417.37
  Q 197.18 441.53 171.91 465.27
  C 157.57 478.74 143.88 493.02 130.67 507.66
  Q 127.60 511.07 123.19 512.00
  L 120.97 512.00
  Q 113.49 510.52 110.86 504.96
  Q 109.46 502.02 109.43 497.71
  Q 109.26 470.38 109.13 432.31
  Q 108.99 392.96 114.35 357.84
  Q 114.44 357.22 113.82 357.19
  Q 99.71 356.57 87.03 355.43
  C 56.75 352.69 23.90 345.06 15.43 311.57
  Q 9.67 288.84 6.49 262.28
  Q -2.33 188.66 6.48 115.76
  C 8.96 95.26 13.11 74.50 21.58 56.23
  Q 38.18 20.41 76.47 8.19
  C 95.27 2.18 115.86 0.52 135.53 0.00
  Z
  M 68.31 34.66
  C 105.44 51.78 142.10 70.34 178.53 91.02
  Q 199.08 102.69 219.83 114.86
  C 240.54 127.00 260.87 139.85 281.29 152.72
  C 344.66 192.65 415.22 241.56 481.97 287.36
  A 0.25 0.25 0.0 0 0 482.35 287.20
  Q 484.33 275.69 485.24 264.86
  A 0.63 0.62 -71.9 0 0 484.95 264.28
  C 439.94 235.35 392.99 205.09 346.34 175.47
  Q 338.02 170.19 329.35 164.92
  Q 291.19 141.72 245.50 114.46
  C 201.86 88.41 160.22 59.07 123.98 24.67
  Q 123.59 24.31 123.07 24.31
  Q 108.95 24.45 94.70 26.35
  Q 80.42 28.25 68.31 33.98
  A 0.37 0.37 0.0 0 0 68.31 34.66
  Z
  M 299.31 95.13
  C 258.68 75.76 229.98 62.59 197.29 42.29
  C 188.99 37.13 181.14 31.50 173.17 25.89
  Q 172.71 25.57 172.16 25.53
  Q 154.73 24.19 137.45 24.21
  Q 136.74 24.22 137.30 24.65
  Q 180.30 57.95 226.93 86.54
  Q 277.90 117.78 321.31 141.56
  Q 352.91 158.88 384.51 175.95
  Q 417.94 194.01 446.49 213.57
  Q 466.20 227.07 485.68 244.60
  Q 486.21 245.08 486.20 244.37
  Q 486.03 225.61 485.16 207.40
  Q 485.13 206.77 484.75 206.26
  C 471.13 188.23 453.80 174.08 434.07 162.01
  C 417.42 151.81 400.01 142.68 382.28 134.37
  Q 339.83 114.46 299.31 95.13
  Z
  M 317.73 88.87
  Q 333.13 95.51 345.55 101.42
  Q 380.31 117.96 414.67 134.07
  Q 432.74 142.54 453.15 155.38
  C 459.71 159.52 466.09 164.39 472.29 169.29
  Q 477.54 173.44 483.62 180.03
  Q 484.19 180.64 484.15 179.81
  L 483.36 163.96
  Q 483.33 163.36 482.72 163.33
  Q 476.43 163.04 469.95 159.74
  C 458.50 153.91 448.56 145.28 438.54 137.49
  Q 432.55 132.83 423.79 127.89
  Q 403.37 116.37 385.23 107.31
  Q 342.82 86.12 302.00 65.81
  Q 275.40 52.57 251.88 38.85
  Q 249.67 37.56 251.06 35.14
  Q 251.34 34.66 250.79 34.58
  Q 221.96 30.62 192.29 27.26
  Q 190.89 27.10 192.09 27.83
  Q 221.75 45.69 254.75 60.84
  Q 285.53 74.97 317.73 88.87
  Z
  M 259.06 36.20
  Q 322.25 65.22 384.78 93.88
  C 403.54 102.48 422.82 111.04 440.41 121.18
  Q 459.69 132.29 481.61 147.24
  Q 482.12 147.60 482.05 146.98
  L 480.13 129.97
  Q 480.06 129.36 479.46 129.23
  Q 471.71 127.55 465.80 125.17
  Q 449.51 118.59 433.17 108.28
  C 416.38 97.68 399.51 86.66 382.11 76.91
  Q 370.77 70.56 360.30 64.10
  Q 344.44 54.32 332.84 41.64
  Q 332.49 41.26 331.98 41.25
  Q 307.26 40.81 291.22 39.11
  Q 274.87 37.39 259.22 35.63
  Q 257.36 35.41 259.06 36.20
  Z
  M 470.21 318.89
  Q 475.34 312.26 477.99 304.41
  A 0.46 0.46 0.0 0 0 477.81 303.87
  Q 420.65 267.71 364.68 229.84
  C 301.54 187.13 238.32 143.90 173.83 103.46
  C 154.46 91.32 134.52 79.60 115.28 68.21
  Q 95.73 56.63 61.73 38.48
  Q 61.29 38.25 60.89 38.54
  Q 53.52 43.94 49.24 50.83
  Q 48.89 51.40 49.55 51.36
  Q 51.81 51.22 53.56 52.61
  Q 93.30 84.43 137.22 112.55
  C 183.06 141.91 230.95 168.69 279.19 195.25
  Q 300.72 207.11 345.02 229.29
  C 365.48 239.53 385.52 250.73 405.02 262.72
  Q 429.03 277.49 448.95 295.42
  Q 459.63 305.03 468.18 315.43
  Q 469.59 317.13 469.34 319.38
  A 0.27 0.27 0.0 0 0 469.79 319.60
  Q 469.94 319.46 470.00 319.27
  Q 470.07 319.07 470.21 318.89
  Z
  M 375.58 61.18
  C 398.02 72.51 419.61 83.04 441.98 92.94
  C 448.77 95.95 455.77 99.65 462.36 103.19
  Q 469.23 106.87 476.69 112.81
  Q 477.44 113.41 477.24 112.48
  L 476.47 108.93
  Q 476.26 107.99 475.44 107.47
  Q 462.15 99.18 452.84 92.08
  Q 432.63 76.65 411.92 59.62
  C 403.61 52.79 395.03 46.39 386.73 39.79
  A 1.54 1.53 -26.2 0 0 385.75 39.46
  Q 364.61 39.76 343.07 40.96
  Q 342.26 41.00 342.91 41.49
  C 353.32 49.39 364.37 55.52 375.58 61.18
  Z
  M 468.43 82.25
  Q 457.73 56.06 431.79 46.33
  C 423.56 43.24 415.71 41.95 407.48 40.74
  Q 406.41 40.58 407.32 41.16
  C 428.14 54.37 448.43 67.31 468.17 82.83
  Q 468.65 83.20 468.54 82.60
  Q 468.50 82.42 468.43 82.25
  Z
  M 33.73 92.17
  C 104.64 121.92 170.73 158.04 237.23 199.98
  Q 274.45 223.45 311.84 248.00
  Q 345.81 270.29 378.33 296.06
  C 385.22 301.52 391.87 307.37 398.58 313.17
  C 407.96 321.27 416.99 330.29 425.76 338.86
  Q 426.16 339.25 426.71 339.20
  Q 443.50 337.65 457.62 330.13
  Q 460.91 328.37 464.69 325.04
  Q 465.45 324.37 464.44 324.48
  C 463.26 324.62 462.06 324.08 461.05 323.55
  Q 447.38 316.31 436.59 309.37
  C 409.51 291.94 383.05 273.02 355.07 256.88
  C 293.95 221.61 230.58 185.57 171.68 150.08
  Q 135.08 128.03 99.16 101.94
  C 91.79 96.59 84.76 90.92 77.39 85.06
  C 66.52 76.42 56.33 67.17 46.06 57.81
  Q 45.68 57.46 45.45 57.92
  Q 37.35 74.08 33.47 91.68
  A 0.43 0.42 17.7 0 0 33.73 92.17
  Z
  M 403.23 339.84
  C 386.15 327.29 368.45 314.66 351.36 301.61
  Q 307.36 268.03 266.53 238.47
  Q 243.70 221.94 217.83 205.50
  C 158.04 167.48 95.77 131.50 32.27 99.04
  Q 31.96 98.89 31.90 99.22
  Q 29.12 115.07 28.38 131.27
  A 0.76 0.75 -75.2 0 0 28.78 131.97
  C 46.24 141.38 63.76 150.56 80.91 160.44
  C 121.16 183.62 160.71 207.93 199.70 233.62
  C 253.92 269.33 307.05 304.38 360.72 338.87
  Q 362.62 340.09 364.63 340.20
  Q 383.70 341.24 402.86 340.99
  Q 404.76 340.96 403.23 339.84
  Z
  M 27.65 177.44
  C 38.74 182.59 49.92 187.41 60.26 192.75
  C 74.03 199.86 88.21 207.18 101.69 215.13
  C 112.74 221.63 123.87 228.09 134.65 234.89
  C 182.62 265.18 231.91 300.20 279.83 333.58
  Q 280.23 333.86 280.72 333.88
  Q 304.56 335.09 328.10 337.35
  Q 329.26 337.46 328.27 336.83
  C 267.80 298.08 211.06 258.55 152.77 218.89
  Q 90.65 176.63 28.56 139.68
  A 0.36 0.36 0.0 0 0 28.02 139.98
  L 27.19 176.72
  Q 27.18 177.23 27.65 177.44
  Z
  M 30.25 219.17
  C 58.69 230.15 87.67 245.86 113.49 263.63
  C 125.19 271.68 136.83 279.82 147.71 288.30
  C 156.21 294.93 164.95 301.71 173.14 308.56
  Q 206.50 336.48 237.93 366.34
  Q 238.39 366.78 238.81 366.31
  Q 248.56 355.46 257.07 344.41
  C 258.06 343.13 259.29 342.12 260.40 340.95
  A 0.42 0.41 37.4 0 0 260.31 340.31
  Q 245.35 331.35 229.93 321.81
  Q 217.84 314.33 179.69 287.26
  Q 171.40 281.37 163.43 275.50
  Q 129.21 250.26 96.18 227.48
  C 83.66 218.85 70.56 210.82 57.45 202.76
  Q 45.81 195.60 27.69 186.21
  A 0.27 0.27 0.0 0 0 27.29 186.46
  L 28.13 217.59
  Q 28.15 218.07 28.55 218.32
  Q 29.36 218.83 30.25 219.17
  Z
  M 34.76 275.46
  Q 55.21 286.68 78.15 301.41
  Q 122.97 330.20 166.29 363.95
  Q 187.91 380.79 208.52 397.29
  A 0.53 0.53 0.0 0 0 209.24 397.25
  L 228.71 377.41
  Q 229.12 377.00 228.66 376.65
  C 218.00 368.38 206.61 359.79 196.19 351.20
  Q 165.51 325.92 131.88 297.86
  Q 104.00 274.59 81.99 258.93
  C 64.48 246.46 47.36 235.00 29.08 224.95
  Q 28.52 224.64 28.56 225.28
  Q 29.79 249.34 32.36 273.30
  Q 32.42 273.79 32.79 274.10
  Q 33.72 274.89 34.76 275.46
  Z
  M 61.10 325.24
  Q 70.76 329.46 82.08 331.81
  Q 95.53 334.61 109.08 337.36
  Q 110.22 337.59 109.28 336.90
  C 94.55 326.16 79.64 314.90 64.43 304.53
  Q 49.30 294.23 34.12 283.84
  Q 33.65 283.52 33.73 284.09
  C 36.37 301.96 44.02 317.77 61.10 325.24
  Z
  M 134.90 395.80
  C 142.19 401.02 149.67 405.90 156.79 410.95
  Q 167.48 418.55 176.49 427.52
  A 0.59 0.59 0.0 0 0 177.30 427.53
  L 198.60 407.57
  A 0.42 0.42 0.0 0 0 198.57 406.94
  Q 166.93 381.29 135.37 356.81
  Q 134.95 356.48 134.95 357.01
  L 134.50 395.02
  Q 134.49 395.51 134.90 395.80
  Z
  M 135.21 406.11
  A 0.54 0.54 0.0 0 0 134.33 406.52
  L 134.05 434.58
  A 0.54 0.54 0.0 0 0 134.28 435.02
  L 154.03 448.81
  A 0.54 0.54 0.0 0 0 154.71 448.76
  L 169.27 435.02
  A 0.54 0.54 0.0 0 0 169.24 434.21
  L 135.21 406.11
  Z
  M 133.63 468.80
  Q 133.62 469.42 134.06 468.99
  L 150.10 453.16
  A 0.46 0.46 0.0 0 0 150.05 452.46
  Q 141.69 446.41 134.47 439.88
  A 0.28 0.27 21.1 0 0 134.01 440.08
  L 133.63 468.80
  Z"
/>
</svg>
