<?xml version="1.0" encoding="utf-8"?>
<!-- Generator: Adobe Illustrator 26.5.0, SVG Export Plug-In . SVG Version: 6.00 Build 0)  -->
<svg version="1.1" id="Layer_2_00000124843576524529865510000003081842961000019623_"
	 xmlns="http://www.w3.org/2000/svg" xmlns:xlink="http://www.w3.org/1999/xlink" x="0px" y="0px" viewBox="0 0 131.9 20"
	 style="enable-background:new 0 0 131.9 20;" xml:space="preserve">
<style type="text/css">
	.st0{fill:#FFFFFF;}
</style>
<g id="Layer_3">
	<g>
		<path class="st0" d="M6.1,16.5c3.4,0,6.5-1.7,6.5-6.5S9.4,3.5,6.1,3.5H3.7v13H6.1z M0,0.2h6.4c5.4,0,10,3.2,10,9.8
			s-4.6,9.8-10,9.8H0V0.2z"/>
		<polygon class="st0" points="39.8,5.7 36.6,15.7 33.4,5.7 29.9,5.7 35,19.8 38.3,19.8 43.4,5.7 		"/>
		<rect x="84.1" class="st0" width="3.5" height="19.8"/>
		<polygon class="st0" points="113.1,0 113.1,19.8 116.7,19.8 116.7,15.2 118.3,13.6 122.7,19.8 126.9,19.8 120.7,11.3 126.5,5.7 
			122,5.7 116.7,10.7 116.7,0 		"/>
		<path class="st0" d="M110.5,5.5c-1.7,0-3.5,1.2-4.2,2.8V5.7h-3.5v14.1h3.5v-5.2c0-4.2,1.8-5.8,3.8-5.8c0.6,0,1.3,0.1,1.8,0.3V5.6
			C111.4,5.5,110.9,5.5,110.5,5.5"/>
		<path class="st0" d="M97.8,13.7c0,2.1-1.3,3.7-3.4,3.7c-1.3,0-2.1-0.7-2.1-1.7s0.9-1.8,2.8-2l2.7-0.3L97.8,13.7L97.8,13.7z
			 M95,5.5c-3,0-5.5,1.8-5.9,4.6h3.2c0.3-1.2,1.3-1.9,2.7-1.9c1.7,0,2.8,1,2.8,2.6v0.1l-2.6,0.3c-4.2,0.4-6.3,1.9-6.3,4.7
			c0,2.4,1.9,4.2,4.7,4.2c1.7,0,3.4-0.9,4.2-2.3v2h3.4v-8.6C101.2,7.5,98.7,5.5,95,5.5"/>
		<path class="st0" d="M74.1,16.7c-3.3,0-5.9-2.3-5.9-6.7s2.6-6.7,5.9-6.7c2.2,0,4,1.2,4.7,3.2h4c-0.7-3.9-4-6.5-8.7-6.5
			c-5.1,0-9.7,3.4-9.7,10s4.6,10,9.7,10c4.5,0,7.7-2.3,8.6-6.1h-4.1C78,15.6,76.3,16.7,74.1,16.7"/>
		<path class="st0" d="M46.4,11.1c0.4-1.9,1.6-2.9,3.4-2.9c2,0,3.1,1.3,3.3,2.9H46.4L46.4,11.1z M49.8,5.5c-4.7,0-7,3.6-7,7.3
			S45.3,20,50,20c3.3,0,5.8-1.6,6.5-4.2h-3.7C52.3,16.6,51.3,17,50,17c-2,0-3.4-1.3-3.7-3.4h10.4c0-0.3,0.1-0.9,0.1-1.4
			C56.9,9,54.5,5.5,49.8,5.5"/>
		<path class="st0" d="M26.5,13.7c0,2.1-1.3,3.7-3.4,3.7c-1.3,0-2.1-0.7-2.1-1.7s0.9-1.8,2.8-2l2.7-0.3L26.5,13.7L26.5,13.7z
			 M23.7,5.5c-3,0-5.5,1.8-5.9,4.6H21c0.3-1.2,1.3-1.9,2.7-1.9c1.7,0,2.8,1,2.8,2.6v0.1l-2.6,0.3c-4.2,0.4-6.3,1.9-6.3,4.7
			c0,2.4,1.9,4.2,4.7,4.2c1.7,0,3.4-0.9,4.2-2.3v2h3.4v-8.6C29.9,7.5,27.4,5.5,23.7,5.5"/>
		<circle class="st0" cx="129.8" cy="17.6" r="2.2"/>
	</g>
</g>
</svg>
