<?xml version="1.0" ?><svg data-name="Layer 36" id="Layer_36" viewBox="0 0 50 50" xmlns="http://www.w3.org/2000/svg"><defs><style>.cls-1{fill:#010101;}</style></defs><title/><path class="cls-1" d="M46,29H44.9a17,17,0,0,0-5.9-11h3.8a3,3,0,1,0,0-4H30V13a2,2,0,0,0-2-2H22a2,2,0,0,0-2,2v1H7.2a3,3,0,1,0,0,4h3.8A17,17,0,0,0,5.1,29H4a2,2,0,0,0-2,2v6a2,2,0,0,0,2,2h6a2,2,0,0,0,2-2V31a2,2,0,0,0-2-2H9.2A13,13,0,0,1,20,18.2V19a2,2,0,0,0,2,2h6a2,2,0,0,0,2-2V18.2A13,13,0,0,1,40.8,29H40a2,2,0,0,0-2,2v6a2,2,0,0,0,2,2h6a2,2,0,0,0,2-2V31A2,2,0,0,0,46,29ZM8,35H6V33H8v2ZM26,17H24V15h2v2ZM44,35H42V33h2v2Z"/></svg>