<?xml version="1.0" encoding="UTF-8" standalone="no"?>
<!DOCTYPE svg PUBLIC "-//W3C//DTD SVG 1.1//EN" "http://www.w3.org/Graphics/SVG/1.1/DTD/svg11.dtd">
<svg xmlns="http://www.w3.org/2000/svg" version="1.1" viewBox="0.00 0.00 600.00 315.00">
<path fill="#00b8af" d="
  M 600.00 86.38
  L 600.00 227.75
  Q 598.54 239.55 588.80 243.41
  Q 585.13 244.86 579.96 244.86
  Q 462.72 244.76 346.12 244.80
  Q 343.01 244.80 340.26 243.25
  C 334.60 240.07 334.92 234.04 337.57 228.98
  Q 359.88 186.44 380.80 146.28
  Q 381.14 145.62 381.41 146.31
  Q 393.92 177.40 406.66 209.08
  C 408.72 214.20 412.76 215.65 418.05 215.53
  Q 422.52 215.43 426.47 215.42
  C 432.00 215.40 434.44 212.01 436.49 207.04
  Q 452.54 167.94 468.75 128.94
  Q 468.94 128.49 469.08 128.01
  Q 469.37 127.08 470.12 126.80
  A 0.67 0.66 79.3 0 1 471.03 127.43
  Q 470.88 147.61 471.08 162.01
  C 471.17 168.04 471.15 174.64 472.25 180.46
  C 477.62 208.79 504.24 220.43 530.83 215.68
  C 552.98 211.72 567.36 194.72 567.90 172.03
  C 568.40 151.05 568.39 130.13 568.21 109.50
  Q 568.14 102.74 561.70 102.59
  Q 555.03 102.44 548.16 102.60
  C 543.30 102.72 541.89 106.18 541.93 110.56
  Q 542.13 138.16 541.93 165.86
  Q 541.91 168.91 541.78 172.16
  C 541.21 186.39 531.92 195.60 517.62 194.59
  Q 503.66 193.60 498.84 180.07
  C 497.14 175.27 497.38 168.73 497.35 163.51
  Q 497.18 134.99 497.27 108.67
  C 497.28 105.13 493.06 103.03 490.01 102.66
  Q 476.99 101.10 463.94 102.33
  C 462.00 102.52 460.28 103.15 458.40 103.52
  C 450.93 104.98 446.22 113.90 443.47 120.25
  Q 433.26 143.88 422.43 172.66
  Q 421.39 175.43 420.25 172.70
  L 396.79 116.70
  A 1.36 1.35 -42.7 0 1 396.84 115.54
  Q 403.42 103.35 409.83 90.67
  Q 413.96 82.49 416.97 79.34
  C 422.50 73.54 431.04 69.20 439.25 69.20
  Q 511.48 69.22 581.75 69.15
  Q 587.27 69.15 591.82 72.22
  Q 599.25 77.23 600.00 86.38
  Z"
/>
<path fill="#FFFFFF" d="
  M 72.26 179.79
  C 87.70 151.60 102.83 124.14 118.18 96.48
  C 121.04 91.32 124.34 89.56 130.23 89.65
  Q 138.57 89.78 147.61 89.77
  Q 151.36 89.77 153.57 92.33
  Q 154.88 93.85 155.96 97.76
  Q 172.12 156.10 188.14 214.00
  C 189.18 217.73 186.99 220.02 183.53 220.00
  Q 172.45 219.94 162.67 219.97
  Q 155.62 219.99 153.93 213.41
  Q 151.25 202.93 148.42 192.94
  Q 147.46 189.52 144.66 187.76
  Q 144.22 187.48 143.70 187.48
  Q 123.86 187.47 106.76 187.48
  C 101.65 187.48 98.56 190.25 96.40 194.62
  Q 91.04 205.46 86.05 214.74
  C 84.13 218.32 80.43 219.99 76.47 219.99
  Q 43.93 219.96 5.51 219.97
  C 1.80 219.97 -0.16 217.18 0.34 213.66
  Q 8.98 152.36 16.90 96.20
  C 17.55 91.59 20.77 89.62 25.20 89.67
  Q 34.25 89.79 43.07 89.71
  Q 50.14 89.64 49.17 96.51
  Q 43.11 139.22 37.22 181.53
  C 36.62 185.79 39.66 187.51 43.38 187.51
  Q 52.86 187.53 61.76 187.40
  C 67.05 187.32 69.70 184.47 72.26 179.79
  Z
  M 133.62 127.03
  Q 132.76 127.96 132.18 129.11
  Q 125.38 142.49 119.09 154.75
  C 117.77 157.32 118.74 159.88 121.90 159.90
  Q 130.91 159.95 140.33 159.89
  C 143.15 159.88 142.98 157.33 142.54 155.40
  Q 139.28 141.31 136.32 128.92
  Q 136.10 127.98 135.54 127.17
  A 1.23 1.23 0.0 0 0 133.62 127.03
  Z"
/>
<path fill="#FFFFFF" d="
  M 235.56 174.93
  A 1.77 1.75 26.4 0 0 237.65 174.24
  Q 249.08 156.43 261.81 136.44
  Q 263.43 133.90 262.50 130.50
  Q 257.87 113.51 252.72 95.51
  C 251.77 92.18 253.87 89.74 257.12 89.73
  Q 268.41 89.70 278.20 89.75
  C 283.92 89.77 285.72 93.11 287.14 98.31
  Q 296.76 133.35 307.09 171.08
  Q 307.46 172.43 307.92 173.40
  A 0.76 0.76 0.0 0 0 309.29 173.41
  Q 329.16 133.99 348.40 95.65
  C 350.84 90.78 355.03 89.61 360.46 89.67
  Q 370.47 89.77 379.45 89.72
  C 382.77 89.70 384.20 92.08 382.65 95.06
  Q 351.33 154.90 320.27 214.19
  Q 317.26 219.94 310.16 219.97
  Q 299.95 220.01 291.06 219.90
  C 286.50 219.85 284.10 216.69 283.04 212.58
  Q 278.48 195.03 273.49 176.91
  Q 273.34 176.34 272.92 175.89
  A 1.98 1.98 0.0 0 0 269.79 176.21
  Q 257.75 195.77 246.10 214.80
  Q 242.99 219.90 235.20 219.97
  Q 226.27 220.05 217.09 219.90
  C 212.53 219.83 210.08 217.20 209.04 213.16
  Q 193.69 153.81 178.65 95.48
  C 177.71 91.84 180.23 89.66 183.65 89.69
  Q 193.14 89.79 203.08 89.69
  C 207.19 89.65 211.00 91.49 212.10 95.49
  Q 223.13 135.74 233.06 171.72
  Q 233.76 174.27 235.56 174.93
  Z"
/>
</svg>
