<?xml version="1.0" encoding="UTF-8" standalone="no"?>
<!DOCTYPE svg PUBLIC "-//W3C//DTD SVG 1.1//EN" "http://www.w3.org/Graphics/SVG/1.1/DTD/svg11.dtd">
<svg xmlns="http://www.w3.org/2000/svg" version="1.1" viewBox="0.00 0.00 512.00 512.00">
<g stroke-width="2.00" fill="none" stroke-linecap="butt">
<path stroke="#99805a" vector-effect="non-scaling-stroke" d="
  M 350.01 176.94
  Q 357.70 167.27 365.84 157.84
  Q 400.00 118.29 431.51 84.01
  Q 435.77 79.37 440.36 74.62
  C 443.83 71.03 439.89 65.71 436.02 68.01
  Q 434.52 68.90 432.89 70.05
  C 399.93 93.26 368.36 115.56 336.20 140.44
  Q 323.10 150.57 312.29 161.13"
/>
<path stroke="#99805a" vector-effect="non-scaling-stroke" d="
  M 344.43 177.47
  Q 341.63 174.63 343.96 171.74
  C 363.68 147.26 386.37 121.99 408.05 97.86
  Q 408.99 96.82 407.85 97.63
  C 382.11 115.76 356.08 134.55 331.93 154.17
  Q 330.70 155.16 324.45 160.74
  Q 320.62 164.15 316.60 166.90"
/>
</g>
<path fill="#ffcc80" d="
  M 350.01 176.94
  Q 357.70 167.27 365.84 157.84
  Q 400.00 118.29 431.51 84.01
  Q 435.77 79.37 440.36 74.62
  C 443.83 71.03 439.89 65.71 436.02 68.01
  Q 434.52 68.90 432.89 70.05
  C 399.93 93.26 368.36 115.56 336.20 140.44
  Q 323.10 150.57 312.29 161.13
  Q 285.19 152.24 257.76 142.40
  Q 251.57 140.18 245.99 137.84
  A 0.35 0.35 0.0 0 1 245.96 137.21
  C 282.21 118.74 319.86 103.78 357.47 88.94
  Q 401.66 71.52 446.01 54.23
  Q 453.93 51.14 461.73 48.09
  Q 462.35 47.85 462.17 48.49
  C 455.15 74.20 448.89 99.84 442.10 127.51
  Q 427.81 185.71 412.48 235.70
  A 0.30 0.30 0.0 0 1 411.97 235.81
  C 392.93 214.43 371.82 195.46 350.01 176.94
  Z"
/>
<path fill="#333333" d="
  M 350.01 176.94
  Q 347.79 179.24 344.43 177.47
  Q 341.63 174.63 343.96 171.74
  C 363.68 147.26 386.37 121.99 408.05 97.86
  Q 408.99 96.82 407.85 97.63
  C 382.11 115.76 356.08 134.55 331.93 154.17
  Q 330.70 155.16 324.45 160.74
  Q 320.62 164.15 316.60 166.90
  Q 312.02 165.56 312.29 161.13
  Q 323.10 150.57 336.20 140.44
  C 368.36 115.56 399.93 93.26 432.89 70.05
  Q 434.52 68.90 436.02 68.01
  C 439.89 65.71 443.83 71.03 440.36 74.62
  Q 435.77 79.37 431.51 84.01
  Q 400.00 118.29 365.84 157.84
  Q 357.70 167.27 350.01 176.94
  Z"
/>
<path fill="#ffcc80" d="
  M 344.43 177.47
  Q 323.79 203.15 306.90 230.87
  Q 306.47 231.57 306.60 230.77
  L 316.60 166.90
  Q 320.62 164.15 324.45 160.74
  Q 330.70 155.16 331.93 154.17
  C 356.08 134.55 382.11 115.76 407.85 97.63
  Q 408.99 96.82 408.05 97.86
  C 386.37 121.99 363.68 147.26 343.96 171.74
  Q 341.63 174.63 344.43 177.47
  Z"
/>
<rect fill="#333333" x="-4.00" y="-14.07" transform="translate(281.33,266.81) rotate(40.6)" width="8.00" height="28.14" rx="3.83"/>
<path fill="#333333" d="
  M 253.98 296.75
  Q 251.23 296.35 248.21 296.53
  Q 244.14 296.77 243.82 292.70
  Q 243.79 292.39 243.84 292.08
  Q 244.49 288.29 248.33 288.51
  L 259.32 289.13
  A 0.77 0.76 -72.9 0 0 260.03 288.75
  C 261.50 286.35 264.19 280.70 268.00 282.67
  Q 270.59 284.02 270.25 287.13
  A 2.26 2.19 66.3 0 1 269.86 288.18
  L 269.17 289.18
  Q 268.18 290.62 269.92 290.85
  C 272.97 291.27 275.79 293.01 274.46 296.42
  C 272.91 300.38 267.64 298.52 264.50 297.90
  Q 263.96 297.79 263.70 298.28
  Q 261.15 303.01 259.48 307.83
  C 257.59 313.26 249.94 310.81 251.79 305.44
  Q 253.01 301.91 254.80 298.32
  A 1.10 1.09 -72.6 0 0 253.98 296.75
  Z"
/>
<path fill="#333333" d="
  M 211.50 293.42
  Q 220.41 290.81 231.68 289.69
  Q 235.71 289.28 235.73 293.17
  Q 235.73 293.26 235.73 293.32
  Q 235.75 297.08 231.95 297.52
  Q 222.34 298.65 212.24 301.56
  Q 211.02 301.90 209.84 301.63
  Q 207.75 301.15 206.92 298.72
  Q 206.39 297.15 207.44 295.97
  Q 209.08 294.13 211.50 293.42
  Z"
/>
<path fill="#333333" d="
  M 285.30 303.64
  C 282.73 302.54 281.22 299.78 283.19 297.43
  Q 285.17 295.08 288.03 296.23
  Q 298.97 300.64 307.90 307.04
  Q 310.28 308.75 309.44 311.56
  Q 309.26 312.18 308.84 312.68
  Q 306.32 315.69 303.11 313.41
  Q 295.54 308.01 285.30 303.64
  Z"
/>
<path fill="#333333" d="
  M 195.98 307.50
  Q 189.09 310.33 182.56 314.15
  Q 178.96 316.26 176.40 313.10
  Q 176.34 313.02 176.30 312.94
  Q 174.75 309.51 177.97 307.56
  Q 186.19 302.61 193.34 299.77
  Q 194.93 299.13 196.64 299.32
  Q 198.61 299.53 199.37 301.29
  Q 200.55 304.03 198.56 305.89
  Q 197.50 306.88 195.98 307.50
  Z"
/>
<path fill="#333333" d="
  M 248.82 319.21
  A 3.24 3.23 72.1 0 1 249.84 317.21
  Q 251.66 315.52 253.43 316.01
  Q 257.04 317.00 256.65 320.72
  Q 255.81 328.91 257.53 336.85
  C 258.07 339.33 256.62 341.76 253.85 341.88
  Q 250.53 342.03 249.83 338.79
  Q 247.68 328.84 248.82 319.21
  Z"
/>
<path fill="#333333" d="
  M 135.18 376.31
  C 144.11 374.07 155.64 375.38 162.23 382.47
  Q 171.84 392.82 173.28 406.39
  C 174.22 415.31 169.74 423.35 159.99 423.68
  C 155.52 423.83 151.01 421.03 148.22 417.53
  C 145.70 414.36 144.60 410.38 142.12 407.16
  A 1.68 1.67 47.2 0 0 139.54 407.06
  Q 136.83 410.08 135.30 413.85
  Q 131.11 424.16 129.12 437.22
  Q 127.06 450.74 125.17 464.67
  C 124.43 470.10 116.54 468.93 117.29 463.70
  Q 119.36 449.17 121.44 434.62
  C 122.94 424.15 126.18 411.07 132.63 402.86
  C 135.65 399.03 141.57 396.77 146.00 399.65
  C 150.96 402.86 153.35 415.84 159.52 415.62
  C 170.17 415.23 163.69 399.83 161.23 394.59
  C 154.24 379.74 138.41 381.76 126.32 387.95
  Q 124.76 388.75 123.00 388.50
  C 118.73 387.89 119.97 382.77 121.47 380.25
  C 126.57 371.67 133.79 364.07 142.98 360.18
  Q 147.64 358.21 152.35 355.68
  Q 157.96 352.67 158.70 346.92
  C 159.93 337.40 144.30 342.57 140.41 344.00
  Q 111.39 354.65 97.97 381.86
  C 95.96 385.95 89.66 383.30 90.62 379.25
  Q 95.50 358.65 109.51 345.77
  C 112.84 342.71 116.57 340.58 120.34 338.13
  C 123.23 336.25 127.93 331.79 126.49 328.00
  C 124.23 322.05 111.37 326.97 107.06 329.30
  C 87.65 339.77 75.31 359.03 69.39 380.20
  Q 58.41 419.49 53.57 461.04
  Q 53.12 464.97 49.34 464.61
  Q 49.26 464.60 49.18 464.60
  Q 45.32 464.23 45.80 460.32
  Q 49.59 429.18 55.62 400.86
  Q 59.88 380.90 67.07 363.69
  Q 72.52 350.63 80.76 340.96
  C 91.48 328.37 105.10 317.75 121.50 317.27
  C 133.41 316.92 138.21 329.69 131.66 338.49
  Q 131.11 339.22 131.96 338.89
  C 140.10 335.67 152.77 330.29 160.96 335.36
  C 168.84 340.24 168.16 351.59 162.35 357.89
  Q 159.04 361.48 154.47 363.61
  C 147.37 366.91 140.14 369.52 134.77 375.64
  Q 133.89 376.64 135.18 376.31
  Z"
/>
<path fill="#333333" d="
  M 321.18 339.07
  C 320.34 333.06 318.55 329.10 314.92 324.29
  Q 312.58 321.18 314.74 318.72
  C 317.84 315.21 321.79 319.61 323.44 322.27
  Q 328.00 329.63 329.08 338.58
  Q 329.43 341.47 326.83 342.78
  C 323.93 344.25 321.58 341.99 321.18 339.07
  Z"
/>
<path fill="#333333" d="
  M 256.53 349.15
  C 258.31 346.78 261.41 348.04 262.85 350.14
  Q 268.06 357.75 275.15 362.21
  Q 278.51 364.32 276.65 367.82
  Q 276.44 368.23 276.12 368.56
  Q 273.86 370.87 271.13 369.13
  Q 261.97 363.31 256.13 354.29
  Q 254.52 351.81 256.53 349.15
  Z"
/>
<path fill="#333333" d="
  M 319.24 350.42
  Q 320.96 347.04 324.53 348.33
  Q 325.09 348.53 325.50 349.00
  Q 327.42 351.17 326.24 353.81
  Q 324.33 358.09 320.86 362.69
  C 318.90 365.31 314.73 367.56 312.55 364.05
  Q 311.01 361.57 313.41 358.85
  Q 317.04 354.75 319.24 350.42
  Z"
/>
<path fill="#333333" d="
  M 284.81 374.67
  C 282.59 374.04 280.27 372.16 281.22 369.56
  C 282.64 365.67 288.12 366.96 291.22 367.51
  C 294.81 368.14 298.60 367.49 301.90 366.13
  C 304.60 365.02 307.51 365.47 308.59 368.59
  Q 309.29 370.61 307.49 371.98
  C 301.71 376.39 290.94 376.40 284.81 374.67
  Z"
/>
</svg>
