<?xml version="1.0" encoding="UTF-8" standalone="no"?>
<!DOCTYPE svg PUBLIC "-//W3C//DTD SVG 1.1//EN" "http://www.w3.org/Graphics/SVG/1.1/DTD/svg11.dtd">
<svg xmlns="http://www.w3.org/2000/svg" version="1.1" viewBox="0.00 0.00 512.00 512.00">
<path fill="#67595E" d="
  M 121.79 0.00
  L 127.05 0.00
  Q 160.46 1.92 185.14 22.49
  Q 192.87 28.94 198.95 36.68
  Q 216.34 58.85 218.72 87.28
  Q 220.88 113.13 209.17 137.10
  A 1.34 1.33 -51.3 0 0 209.32 138.50
  L 255.72 197.30
  A 0.37 0.36 -44.6 0 0 256.29 197.30
  L 302.83 138.31
  A 0.77 0.75 -39.9 0 0 302.91 137.51
  C 282.61 96.39 293.89 47.55 330.10 19.85
  Q 354.92 0.85 387.27 0.00
  L 392.48 0.00
  Q 430.73 2.21 457.06 28.43
  C 468.17 39.50 477.08 54.64 481.22 70.34
  C 490.87 106.82 478.58 145.16 448.95 168.79
  Q 419.97 191.91 381.75 189.73
  C 378.09 189.52 374.23 188.71 370.49 188.29
  Q 369.88 188.22 369.49 188.71
  L 309.57 264.58
  A 0.79 0.78 45.4 0 0 309.57 265.55
  Q 359.01 328.19 408.83 391.32
  C 412.30 395.72 415.40 400.26 418.53 404.90
  Q 423.87 412.80 427.90 426.01
  Q 435.37 450.48 425.76 474.35
  Q 422.69 481.98 417.79 489.60
  C 412.58 497.70 404.78 504.72 398.09 511.69
  A 0.38 0.37 -42.7 0 1 397.52 511.67
  L 256.36 332.89
  Q 256.00 332.44 255.64 332.89
  L 114.54 511.59
  A 0.43 0.43 0.0 0 1 113.90 511.63
  Q 106.96 504.65 100.72 498.02
  Q 94.34 491.24 88.77 479.97
  C 79.26 460.72 78.32 438.77 86.53 418.76
  Q 90.22 409.78 93.51 404.86
  C 96.62 400.21 99.73 395.63 103.18 391.26
  Q 152.81 328.43 202.50 265.49
  Q 202.81 265.09 202.50 264.70
  L 142.48 188.71
  A 1.23 1.21 -23.8 0 0 141.30 188.26
  Q 113.92 193.13 88.67 183.48
  Q 79.33 179.90 71.02 174.52
  Q 53.54 163.17 42.13 145.45
  C 17.50 107.20 24.71 56.50 57.74 25.86
  Q 84.17 1.33 121.79 0.00
  Z
  M 164.4176 93.1638
  A 41.14 40.64 -2.6 0 0 121.4764 54.4318
  A 41.14 40.64 -2.6 0 0 82.2224 96.8962
  A 41.14 40.64 -2.6 0 0 125.1636 135.6282
  A 41.14 40.64 -2.6 0 0 164.4176 93.1638
  Z
  M 429.7776 93.1638
  A 41.14 40.64 -2.6 0 0 386.8364 54.4318
  A 41.14 40.64 -2.6 0 0 347.5824 96.8962
  A 41.14 40.64 -2.6 0 0 390.5236 135.6282
  A 41.14 40.64 -2.6 0 0 429.7776 93.1638
  Z"
/>
</svg>
